<svg id="Layer_1" data-name="Layer 1" xmlns="http://www.w3.org/2000/svg" viewBox="0 0 512 512"><defs><style>.cls-1{fill:#898989;}</style></defs><title>share-other</title><path class="cls-1" d="M178.07,221a5.69,5.69,0,0,1-2.54-10.78L331.4,132.36a5.69,5.69,0,1,1,5.08,10.18L180.6,220.36A5.6,5.6,0,0,1,178.07,221Z"/><path class="cls-1" d="M333.93,380.24a5.58,5.58,0,0,1-2.53-.6L175.52,301.82a5.69,5.69,0,1,1,5.08-10.18l155.88,77.82a5.69,5.69,0,0,1-2.54,10.78Z"/><path class="cls-1" d="M415.29,193.42A96.71,96.71,0,1,1,512,96.71,96.82,96.82,0,0,1,415.29,193.42Zm0-182a85.33,85.33,0,1,0,85.33,85.33A85.43,85.43,0,0,0,415.29,11.38Z"/><path class="cls-1" d="M415.29,512A96.71,96.71,0,1,1,512,415.29,96.82,96.82,0,0,1,415.29,512Zm0-182a85.33,85.33,0,1,0,85.33,85.33A85.43,85.43,0,0,0,415.29,330Z"/><path class="cls-1" d="M96.71,352.71A96.71,96.71,0,1,1,193.42,256,96.82,96.82,0,0,1,96.71,352.71Zm0-182A85.33,85.33,0,1,0,182,256,85.43,85.43,0,0,0,96.71,170.67Z"/></svg>